<svg width="65" height="66" fill="none" xmlns="http://www.w3.org/2000/svg"><g clip-path="url(#clip0_52_863)"><path d="M54.06 13.238c-.045-.328-.333-.51-.57-.53-.236-.02-4.864-.09-4.864-.09s-3.87-3.758-4.251-4.14c-.383-.383-1.13-.267-1.42-.182l-1.944.602a13.579 13.579 0 00-.93-2.286c-1.378-2.629-3.395-4.02-5.833-4.023h-.009c-.169 0-.337.015-.506.03a5.742 5.742 0 00-.22-.253C32.45 1.23 31.088.676 29.457.725c-3.15.09-6.284 2.364-8.827 6.403-1.79 2.842-3.15 6.413-3.537 9.177l-6.2 1.92c-1.824.572-1.882.63-2.12 2.349-.182 1.302-4.957 38.227-4.957 38.227l40.02 6.92 17.345-4.31s-7.076-47.845-7.121-48.173zM19.335 15.61c1.083-5.06 5.322-12.65 10.182-12.79.74-.016 1.363.146 1.894.496-.85.442-1.673 1.077-2.445 1.904-2 2.146-3.532 5.478-4.143 8.69l-5.488 1.7zm14.472-4.481l-6.681 2.069c.646-2.473 1.87-4.935 3.373-6.548.56-.6 1.342-1.27 2.269-1.652.872 1.816 1.06 4.391 1.04 6.13zm2.094-.648c-.024-1.595-.214-3.813-.957-5.73 2.39.452 3.566 3.156 4.063 4.768l-3.106.962z" fill="#95BF47"/><path d="M53.49 12.708c-.237-.02-4.864-.09-4.864-.09s-3.87-3.758-4.252-4.14a.952.952 0 00-.537-.248v57.49l17.344-4.31s-7.077-47.844-7.122-48.172c-.044-.328-.332-.51-.569-.53z" fill="#5E8E3E"/><path d="M34.224 21.626l-2.014 7.537s-2.247-1.024-4.911-.856c-3.907.247-3.948 2.711-3.91 3.329.214 3.37 9.08 4.107 9.579 12 .392 6.212-3.295 10.46-8.606 10.795-6.375.403-9.884-3.358-9.884-3.358l1.35-5.747s3.532 2.665 6.36 2.486c1.847-.116 2.507-1.618 2.44-2.68-.278-4.397-7.498-4.138-7.954-11.362-.384-6.08 3.608-12.24 12.418-12.796 3.394-.214 5.133.652 5.133.652z" fill="#fff"/></g><defs><clipPath id="clip0_52_863"><path fill="#fff" transform="translate(0 .722)" d="M0 0h65v65H0z"/></clipPath></defs></svg>