<svg width="65" height="66" fill="none" xmlns="http://www.w3.org/2000/svg"><path d="M49.766.722H15.234C6.821.722 0 7.542 0 15.956v34.531c0 8.414 6.82 15.235 15.234 15.235h34.532C58.179 65.722 65 58.9 65 50.487v-34.53C65 7.541 58.18.721 49.766.721z" fill="#4353FF"/><path d="M42.937 26.985s-3.508 10.99-3.767 11.922c-.104-.915-2.661-20.666-2.661-20.666-5.979 0-9.158 4.25-10.852 8.744 0 0-4.268 11.024-4.613 11.94-.018-.864-.657-11.837-.657-11.837-.363-5.512-5.391-8.847-9.469-8.847l4.908 29.91c6.254-.016 9.624-4.25 11.386-8.76 0 0 3.75-9.728 3.906-10.16.034.415 2.695 18.92 2.695 18.92 6.273 0 9.66-3.956 11.474-8.293l8.795-21.617c-6.203 0-9.47 4.234-11.145 8.744z" fill="#fff"/></svg>