<svg width="137" height="40" fill="none" xmlns="http://www.w3.org/2000/svg"><path d="M0 9.63l7.573-6.588C9.813 1.094 12.85 0 16.017 0h11.914v9.63H0z" fill="#E34D00"/><path d="M9.876 40l7.573-6.588c2.24-1.948 3.497-4.59 3.497-7.345V6.073l-7.573 6.589c-2.24 1.948-3.497 4.59-3.497 7.344V40zM34.867 0H19.81c4.484 0 8.12 3.163 8.12 7.064v26.862l7.573-6.588C37.743 25.39 39 22.748 39 19.994v-16.4C39 1.61 37.15 0 34.867 0z" fill="#E34D00"/><path d="M49.73 31V10h4.02l11.64 15.72h-.81c-.14-1.02-.26-2.03-.36-3.03-.1-1.02-.17-2.1-.21-3.24-.02-1.14-.03-2.41-.03-3.81V10h4.38v21h-4.08L52.43 15.19h1.08c.14 1.32.25 2.41.33 3.27.08.86.14 1.58.18 2.16.04.56.07 1.06.09 1.5.02.44.03.9.03 1.38V31h-4.41zm31.012.3c-1.72 0-3.23-.35-4.53-1.05-1.28-.7-2.28-1.66-3-2.88-.7-1.22-1.05-2.61-1.05-4.17 0-1.24.2-2.37.6-3.39.4-1.04.96-1.93 1.68-2.67s1.57-1.31 2.55-1.71c1-.42 2.09-.63 3.27-.63 1.08 0 2.07.2 2.97.6.92.38 1.71.93 2.37 1.65.68.7 1.2 1.53 1.56 2.49.36.96.53 2.01.51 3.15l-.03 1.32h-12.75l-.69-2.64h9.93l-.51.54v-.63c-.04-.56-.22-1.05-.54-1.47-.3-.42-.69-.75-1.17-.99-.48-.26-1.01-.39-1.59-.39-.9 0-1.66.18-2.28.54-.6.34-1.06.84-1.38 1.5-.3.64-.45 1.44-.45 2.4 0 .94.2 1.77.6 2.49.4.7.97 1.24 1.71 1.62.76.38 1.65.57 2.67.57.7 0 1.34-.11 1.92-.33.58-.22 1.21-.6 1.89-1.14l2.01 2.85c-.56.5-1.19.93-1.89 1.29s-1.42.63-2.16.81c-.74.18-1.48.27-2.22.27zm15.537 0c-1.14 0-2.13-.25-2.97-.75-.84-.52-1.49-1.25-1.95-2.19-.44-.96-.66-2.1-.66-3.42v-9.81h4.26v9.03c0 1.12.26 2 .78 2.64.54.62 1.28.93 2.22.93.48 0 .91-.07 1.29-.21.4-.16.74-.38 1.02-.66s.5-.61.66-.99c.16-.38.24-.8.24-1.26v-9.48h4.26V31h-4.05l-.12-3.27.75-.36c-.22.74-.62 1.41-1.2 2.01-.56.6-1.23 1.07-2.01 1.41-.78.34-1.62.51-2.52.51zm13.437-.3V15.13h4.11l.15 5.1-.72-1.08c.26-.8.65-1.53 1.17-2.19.54-.66 1.17-1.18 1.89-1.56.74-.4 1.51-.6 2.31-.6.36 0 .69.03.99.09.32.04.59.11.81.21l-1.14 4.65c-.22-.1-.51-.19-.87-.27-.34-.1-.69-.15-1.05-.15-.46 0-.9.09-1.32.27-.4.16-.76.4-1.08.72-.3.3-.54.66-.72 1.08-.16.42-.24.89-.24 1.41V31h-4.29zm21.27 0v-9.93c0-.84-.26-1.48-.78-1.92-.5-.46-1.18-.69-2.04-.69-.82 0-1.55.16-2.19.48-.64.32-1.24.82-1.8 1.5l-2.61-2.52c.96-1 2.03-1.77 3.21-2.31 1.2-.54 2.5-.81 3.9-.81 1.28 0 2.39.2 3.33.6.96.4 1.7 1 2.22 1.8.52.8.78 1.81.78 3.03V31h-4.02zm-4.35.3c-1 0-1.91-.2-2.73-.6-.8-.4-1.44-.95-1.92-1.65-.46-.72-.69-1.56-.69-2.52 0-.82.15-1.54.45-2.16.3-.64.74-1.16 1.32-1.56.6-.42 1.34-.74 2.22-.96.9-.22 1.94-.33 3.12-.33h4.68l-.27 2.85h-4.47c-.48 0-.91.04-1.29.12-.36.08-.67.21-.93.39-.24.18-.43.39-.57.63-.12.24-.18.52-.18.84 0 .34.09.64.27.9.18.26.42.46.72.6.32.14.68.21 1.08.21.58 0 1.13-.1 1.65-.3a4.7 4.7 0 001.44-.84c.42-.36.75-.77.99-1.23l.81 2.13c-.42.68-.93 1.28-1.53 1.8s-1.25.93-1.95 1.23c-.7.3-1.44.45-2.22.45z" fill="#FBFBFB"/></svg>