<svg width="65" height="65" fill="none" xmlns="http://www.w3.org/2000/svg"><mask id="a" style="mask-type:alpha" maskUnits="userSpaceOnUse" x="0" y="0" width="65" height="65"><path fill="#D9D9D9" d="M0 0h65v65H0z"/></mask><g mask="url(#a)"><path d="M11 10.664C11 4.778 15.928 0 22 0h11v21.328H22c-6.072 0-11-4.777-11-10.664z" fill="#F24E1E"/><path d="M33 0h10.5C49.296 0 54 4.777 54 10.664s-4.704 10.664-10.5 10.664H33V0z" fill="#FF7262"/><path d="M11 32.5c0-6.167 4.928-11.172 11-11.172h11v22.344H22c-6.072 0-11-5.005-11-11.172z" fill="#A259FF"/><path d="M54 32.5c0 6.167-4.704 11.172-10.5 11.172S33 38.667 33 32.5c0-6.167 4.704-11.172 10.5-11.172S54 26.333 54 32.5z" fill="#1ABCFE"/><path d="M22 65c6.072 0 11-4.778 11-10.664V43.672H22c-6.072 0-11 4.777-11 10.664C11 60.222 15.928 65 22 65z" fill="#0ACF83"/></g></svg>